<svg width="116" height="117" viewBox="0 0 116 117" fill="none" xmlns="http://www.w3.org/2000/svg">
<path d="M54.201 0.528994C53.9497 0.55316 53.157 0.635327 52.4417 0.688494C35.9697 2.17716 20.5417 11.0657 10.759 24.7295C5.35679 32.2295 1.84498 40.9228 0.522 50.0707C0.058 53.2607 0 54.1983 0 58.5193C0 62.8403 0.058 63.7828 0.522 66.968C3.67333 88.7518 19.1787 107.051 40.1988 113.832C43.964 115.045 47.9322 115.872 52.4417 116.374C54.201 116.568 61.799 116.568 63.5583 116.374C71.3448 115.509 77.9472 113.581 84.4528 110.26C85.4533 109.753 85.6467 109.613 85.5113 109.501C82.3291 105.305 79.1792 101.083 76.0622 96.838L66.787 84.3052L55.1677 67.1033C51.3016 61.3498 47.3994 55.6205 43.4613 49.916C43.4178 49.9015 43.3743 57.543 43.3502 66.881C43.3163 83.2177 43.3018 83.875 43.0988 84.2617C42.9008 84.7129 42.5476 85.0782 42.1032 85.2912C41.7407 85.4748 41.4265 85.5087 39.7107 85.5087H37.7483L37.2263 85.18C36.9033 84.9761 36.6412 84.6889 36.4675 84.3487L36.2258 83.8412L36.25 61.1052L36.2838 38.3595L36.6367 37.9148C36.8742 37.6368 37.1589 37.4029 37.4777 37.2237C37.9417 36.9965 38.1205 36.9772 40.0877 36.9772C42.398 36.9772 42.7847 37.0642 43.384 37.7215C43.5532 37.9052 49.8462 47.3882 57.3765 58.8045L80.2575 93.4692L89.4408 107.38L89.9097 107.075C94.3293 104.137 98.3362 100.621 101.824 96.6205C109.133 88.2554 113.873 77.9597 115.478 66.968C115.942 63.778 116 62.8403 116 58.5193C116 54.1983 115.942 53.2607 115.478 50.0707C112.327 28.2917 96.8213 9.98783 75.8012 3.20666C71.8725 1.95758 67.8272 1.11062 63.7275 0.678827C62.6352 0.562827 55.1435 0.43716 54.2058 0.533827L54.201 0.528994ZM77.9472 35.619C78.2167 35.7547 78.4567 35.9425 78.6533 36.1715C78.8499 36.4004 78.9992 36.666 79.0927 36.953C79.1797 37.243 79.2038 43.5505 79.1797 57.7605L79.1458 78.1475L75.5547 72.6375L71.949 67.1275V52.3085C71.949 42.724 71.9925 37.3397 72.0602 37.0787C72.1406 36.7768 72.2815 36.4943 72.4742 36.2484C72.667 36.0025 72.9076 35.7982 73.1815 35.648C73.6503 35.4063 73.8195 35.387 75.5982 35.387C77.2753 35.387 77.5702 35.4112 77.9472 35.6142V35.619Z" fill="black"/>
</svg>
