<svg width="62" height="37" viewBox="0 0 62 37" fill="none" xmlns="http://www.w3.org/2000/svg">
<path d="M14.4987 9.64646H26.0881V10.5656H15.5611V17.4827H25.4604V18.4017H15.5611V25.996H26.2088V26.915H14.4987V9.64646ZM27.1264 9.64646H28.3578L33.8144 17.2408L39.3917 9.64634L46.9778 0L34.5145 18.039L40.937 26.915H39.6573L33.8144 18.8371L27.9472 26.915H26.6918L33.1625 18.0389L27.1263 9.64646H27.1264ZM41.3957 10.5656V9.64634H54.6028V10.5655H48.5183V26.9149H47.456V10.5656H41.3957V10.5656ZM0 9.64634H1.32794L19.6395 36.986L12.0723 26.9149L1.1106 10.9525L1.06235 26.9152H0V9.64634ZM54.4958 25.7185C54.2787 25.7185 54.1159 25.5508 54.1159 25.3339C54.1159 25.1171 54.2787 24.9493 54.4958 24.9493C54.7154 24.9493 54.8756 25.117 54.8756 25.3339C54.8756 25.5507 54.7154 25.7185 54.4958 25.7185ZM55.5397 24.7067H56.1082C56.1158 25.0138 56.3406 25.2203 56.6714 25.2203C57.0409 25.2203 57.2502 24.9983 57.2502 24.5827V21.9496H57.829V24.5852C57.829 25.3339 57.3949 25.7651 56.6765 25.7651C56.0021 25.7651 55.5397 25.3468 55.5397 24.7065V24.7067ZM58.586 24.6731H59.1597C59.2088 25.0267 59.555 25.2512 60.0538 25.2512C60.5189 25.2512 60.8599 25.0112 60.8599 24.6808C60.8599 24.3969 60.6428 24.2265 60.1493 24.1103L59.6687 23.9942C58.9942 23.8366 58.6869 23.5114 58.6869 22.9642C58.6869 22.3008 59.2294 21.8593 60.0434 21.8593C60.8004 21.8593 61.3534 22.3007 61.387 22.928H60.8237C60.7694 22.5847 60.4696 22.3704 60.0356 22.3704C59.5783 22.3704 59.2735 22.5899 59.2735 22.9254C59.2735 23.1912 59.4697 23.3436 59.9555 23.4572L60.3663 23.5579C61.1312 23.736 61.4464 24.0458 61.4464 24.606C61.4464 25.3184 60.8935 25.7651 60.0099 25.7651C59.183 25.7651 58.6273 25.339 58.586 24.673V24.6731Z" fill="black"/>
</svg>
