<svg width="37" height="34" viewBox="0 0 37 34" fill="none" xmlns="http://www.w3.org/2000/svg">
<path d="M37 17.0205C37 14.5693 33.9305 12.246 29.2238 10.8061C30.3107 6.00996 29.8282 2.19279 27.7007 0.970247C27.1852 0.681525 26.6017 0.536194 26.011 0.549372V2.22979C26.3579 2.22979 26.6369 2.29916 26.8712 2.42712C27.8965 3.01604 28.342 5.25454 27.9951 8.13591C27.9119 8.84508 27.7762 9.59125 27.6097 10.3528C26.0336 9.97302 24.4339 9.69851 22.8213 9.53112C21.8606 8.20574 20.8125 6.94596 19.684 5.76021C22.143 3.47546 24.4508 2.22362 26.0202 2.22362V0.541664C23.9452 0.541664 21.2303 2.02012 18.4846 4.58391C15.7404 2.03708 13.024 0.572497 10.9505 0.572497V2.25291C12.5122 2.25291 14.8278 3.49858 17.2867 5.76791C16.2307 6.87791 15.1746 8.13591 14.171 9.53112C12.5551 9.69666 10.9525 9.97379 9.37487 10.3605C9.20814 9.63872 9.07694 8.90914 8.98175 8.17446C8.62717 5.29154 9.065 3.05304 10.084 2.45796C10.3091 2.32229 10.6036 2.26062 10.9505 2.26062V0.580206C10.3184 0.580206 9.74333 0.715872 9.24692 1.00108C7.12713 2.22362 6.65229 6.03154 7.74533 10.8138C3.05404 12.263 0 14.577 0 17.0205C0 19.4718 3.06946 21.7951 7.77617 23.2335C6.68929 28.0311 7.17183 31.8483 9.29933 33.0693C9.78958 33.356 10.3631 33.4917 10.9952 33.4917C13.0702 33.4917 15.7851 32.0132 18.5308 29.4495C21.275 31.9978 23.9899 33.4609 26.065 33.4609C26.6602 33.4734 27.2481 33.3277 27.7685 33.0385C29.8883 31.8175 30.3631 28.0095 29.2701 23.2273C33.946 21.7874 37 19.4641 37 17.0205ZM27.1796 11.9901C26.8866 12.9981 26.5471 13.992 26.1621 14.9686C25.5318 13.7426 24.8397 12.5493 24.0885 11.3935C25.16 11.5522 26.1929 11.748 27.1811 11.9901H27.1796ZM23.7262 20.0222C23.1616 21.008 22.5552 21.9693 21.9086 22.9035C19.6458 23.103 17.37 23.1056 15.1068 22.9112C13.8086 21.0569 12.6733 19.0937 11.7136 17.0437C12.6719 14.9888 13.8023 13.0187 15.0929 11.1545C17.3551 10.9546 19.6304 10.9516 21.8932 11.1452C22.5191 12.0425 23.1312 13.0014 23.7185 14.0127C24.292 14.9994 24.8131 16.0015 25.288 17.0128C24.8079 18.0364 24.2869 19.0403 23.7262 20.0222V20.0222ZM26.1621 19.0417C26.5691 20.0515 26.9175 21.0628 27.2027 22.0433C26.216 22.2853 25.1739 22.4888 24.0962 22.6461C24.8443 21.4797 25.5338 20.2767 26.1621 19.0417V19.0417ZM18.5154 27.0892C17.814 26.3646 17.1125 25.5583 16.4187 24.6749C17.0971 24.7057 17.7908 24.7289 18.4923 24.7289C19.2015 24.7289 19.9029 24.7135 20.589 24.6749C19.9106 25.5583 19.2092 26.3646 18.5154 27.0892ZM12.9037 22.6461C11.8643 22.4955 10.8323 22.2969 9.81117 22.051C10.0902 21.0782 10.4371 20.0746 10.8287 19.0725C11.1385 19.6737 11.4638 20.2781 11.8184 20.8824C12.173 21.4852 12.5337 22.0741 12.9037 22.6461ZM18.4769 6.95191C19.1783 7.6765 19.8798 8.48279 20.5735 9.36616C19.8952 9.33533 19.2015 9.31221 18.5 9.31221C17.7908 9.31221 17.0894 9.32762 16.4033 9.36616C17.0817 8.48279 17.7831 7.6765 18.4769 6.95191ZM12.896 11.395C12.1481 12.5589 11.4587 13.7592 10.8302 14.9917C10.4343 14.0088 10.087 13.0071 9.78958 11.9901C10.7762 11.7557 11.8184 11.5522 12.896 11.395ZM6.07108 20.8362C3.40092 19.6984 1.67425 18.2045 1.67425 17.0205C1.67425 15.8365 3.40092 14.335 6.07108 13.2049C6.71858 12.9259 7.42775 12.6761 8.16004 12.4433C8.59017 13.9202 9.15596 15.4588 9.85587 17.036C9.19506 18.5193 8.6362 20.046 8.18317 21.6055C7.46699 21.3837 6.76211 21.127 6.07108 20.8362V20.8362ZM10.1288 31.6124C9.10354 31.0266 8.658 28.785 9.00487 25.9052C9.08812 25.196 9.22379 24.4483 9.39029 23.6867C10.8672 24.049 12.4813 24.328 14.1787 24.51C15.1394 25.8353 16.1875 27.0951 17.316 28.2809C14.857 30.5656 12.5492 31.8175 10.9798 31.8175C10.6837 31.8207 10.3913 31.7508 10.1288 31.614V31.6124ZM28.0182 25.8666C28.3728 28.748 27.935 30.988 26.916 31.5831C26.6909 31.7188 26.3964 31.7789 26.0495 31.7789C24.4878 31.7789 22.1722 30.5348 19.7133 28.2639C20.8371 27.0831 21.8781 25.8262 22.829 24.5022C24.4449 24.3367 26.0475 24.0596 27.6251 23.6728C27.7993 24.4344 27.9335 25.1652 28.0182 25.8666V25.8666ZM30.9212 20.8362C30.2737 21.1152 29.5645 21.365 28.8322 21.5977C28.3713 20.0304 27.8047 18.496 27.1364 17.0051C27.8302 15.4372 28.3867 13.9064 28.8091 12.4356C29.5276 12.6581 30.235 12.9148 30.9289 13.2049C33.5991 14.3427 35.3257 15.8365 35.3257 17.0205C35.318 18.2045 33.5914 19.7061 30.9212 20.8362V20.8362Z" fill="black"/>
<path d="M18.4923 20.4677C19.4066 20.4677 20.2834 20.1045 20.9298 19.4581C21.5763 18.8116 21.9395 17.9348 21.9395 17.0205C21.9395 16.1063 21.5763 15.2295 20.9298 14.583C20.2834 13.9366 19.4066 13.5734 18.4923 13.5734C17.5781 13.5734 16.7013 13.9366 16.0548 14.583C15.4083 15.2295 15.0452 16.1063 15.0452 17.0205C15.0452 17.9348 15.4083 18.8116 16.0548 19.4581C16.7013 20.1045 17.5781 20.4677 18.4923 20.4677V20.4677Z" fill="black"/>
</svg>
